<mxfile host="app.diagrams.net" agent="Mozilla/5.0 (Windows NT 10.0; Win64; x64) AppleWebKit/537.36 (KHTML, like Gecko) Chrome/127.0.0.0 Safari/537.36" version="24.7.7">
  <diagram name="PÃ¡gina-1" id="STYsf3HCZ7sP4GZinSVZ">
    <mxGraphModel dx="1050" dy="1657" grid="1" gridSize="10" guides="1" tooltips="1" connect="1" arrows="1" fold="1" page="1" pageScale="1" pageWidth="850" pageHeight="1100" math="0" shadow="0">
      <root>
        <mxCell id="0" />
        <mxCell id="1" parent="0" />
        <mxCell id="msxX-ajNOKnb9wM-fJMI-4" style="edgeStyle=orthogonalEdgeStyle;rounded=0;orthogonalLoop=1;jettySize=auto;html=1;exitX=1;exitY=0.25;exitDx=0;exitDy=0;entryX=0;entryY=0.5;entryDx=0;entryDy=0;endArrow=none;endFill=0;" parent="1" source="msxX-ajNOKnb9wM-fJMI-1" target="msxX-ajNOKnb9wM-fJMI-2" edge="1">
          <mxGeometry relative="1" as="geometry">
            <Array as="points">
              <mxPoint x="308" y="-659" />
            </Array>
          </mxGeometry>
        </mxCell>
        <mxCell id="msxX-ajNOKnb9wM-fJMI-1" value="doador" style="rounded=0;whiteSpace=wrap;html=1;" parent="1" vertex="1">
          <mxGeometry x="188" y="-668.75" width="120" height="60" as="geometry" />
        </mxCell>
        <mxCell id="msxX-ajNOKnb9wM-fJMI-5" style="edgeStyle=orthogonalEdgeStyle;rounded=0;orthogonalLoop=1;jettySize=auto;html=1;exitX=1;exitY=0.5;exitDx=0;exitDy=0;entryX=0;entryY=0.25;entryDx=0;entryDy=0;endArrow=none;endFill=0;" parent="1" source="msxX-ajNOKnb9wM-fJMI-2" target="msxX-ajNOKnb9wM-fJMI-3" edge="1">
          <mxGeometry relative="1" as="geometry">
            <mxPoint x="509" y="-525" as="targetPoint" />
            <Array as="points">
              <mxPoint x="543" y="-659" />
            </Array>
          </mxGeometry>
        </mxCell>
        <mxCell id="msxX-ajNOKnb9wM-fJMI-2" value="doa em" style="rhombus;whiteSpace=wrap;html=1;" parent="1" vertex="1">
          <mxGeometry x="385" y="-699" width="80" height="80" as="geometry" />
        </mxCell>
        <mxCell id="msxX-ajNOKnb9wM-fJMI-41" style="edgeStyle=orthogonalEdgeStyle;rounded=0;orthogonalLoop=1;jettySize=auto;html=1;exitX=1;exitY=0.25;exitDx=0;exitDy=0;entryX=0;entryY=0.5;entryDx=0;entryDy=0;endArrow=none;endFill=0;" parent="1" source="msxX-ajNOKnb9wM-fJMI-3" target="msxX-ajNOKnb9wM-fJMI-37" edge="1">
          <mxGeometry relative="1" as="geometry" />
        </mxCell>
        <mxCell id="msxX-ajNOKnb9wM-fJMI-42" style="edgeStyle=orthogonalEdgeStyle;rounded=0;orthogonalLoop=1;jettySize=auto;html=1;exitX=1;exitY=0.75;exitDx=0;exitDy=0;entryX=0;entryY=0.5;entryDx=0;entryDy=0;endArrow=none;endFill=0;" parent="1" source="msxX-ajNOKnb9wM-fJMI-3" target="msxX-ajNOKnb9wM-fJMI-39" edge="1">
          <mxGeometry relative="1" as="geometry" />
        </mxCell>
        <mxCell id="msxX-ajNOKnb9wM-fJMI-45" style="edgeStyle=orthogonalEdgeStyle;rounded=0;orthogonalLoop=1;jettySize=auto;html=1;exitX=0.129;exitY=0.998;exitDx=0;exitDy=0;entryX=0;entryY=0.5;entryDx=0;entryDy=0;endArrow=none;endFill=0;exitPerimeter=0;" parent="1" source="msxX-ajNOKnb9wM-fJMI-3" target="msxX-ajNOKnb9wM-fJMI-61" edge="1">
          <mxGeometry relative="1" as="geometry">
            <mxPoint x="698" y="-513.75" as="targetPoint" />
            <Array as="points">
              <mxPoint x="558" y="-503.75" />
            </Array>
          </mxGeometry>
        </mxCell>
        <mxCell id="msxX-ajNOKnb9wM-fJMI-3" value="local de coleta" style="rounded=0;whiteSpace=wrap;html=1;" parent="1" vertex="1">
          <mxGeometry x="543" y="-668.75" width="120" height="60" as="geometry" />
        </mxCell>
        <mxCell id="msxX-ajNOKnb9wM-fJMI-36" style="edgeStyle=orthogonalEdgeStyle;rounded=0;orthogonalLoop=1;jettySize=auto;html=1;exitX=1;exitY=0.5;exitDx=0;exitDy=0;entryX=0;entryY=0.25;entryDx=0;entryDy=0;endArrow=none;endFill=0;" parent="1" source="msxX-ajNOKnb9wM-fJMI-9" target="msxX-ajNOKnb9wM-fJMI-1" edge="1">
          <mxGeometry relative="1" as="geometry" />
        </mxCell>
        <mxCell id="msxX-ajNOKnb9wM-fJMI-9" value="" style="ellipse;whiteSpace=wrap;html=1;aspect=fixed;fillColor=#000000;" parent="1" vertex="1">
          <mxGeometry x="133" y="-663.75" width="20" height="20" as="geometry" />
        </mxCell>
        <mxCell id="msxX-ajNOKnb9wM-fJMI-10" value="" style="ellipse;whiteSpace=wrap;html=1;aspect=fixed;" parent="1" vertex="1">
          <mxGeometry x="133" y="-603.75" width="20" height="20" as="geometry" />
        </mxCell>
        <mxCell id="msxX-ajNOKnb9wM-fJMI-35" style="edgeStyle=orthogonalEdgeStyle;rounded=0;orthogonalLoop=1;jettySize=auto;html=1;exitX=1;exitY=0.5;exitDx=0;exitDy=0;entryX=0;entryY=0.75;entryDx=0;entryDy=0;endArrow=none;endFill=0;" parent="1" source="msxX-ajNOKnb9wM-fJMI-11" target="msxX-ajNOKnb9wM-fJMI-1" edge="1">
          <mxGeometry relative="1" as="geometry" />
        </mxCell>
        <mxCell id="msxX-ajNOKnb9wM-fJMI-11" value="" style="ellipse;whiteSpace=wrap;html=1;aspect=fixed;" parent="1" vertex="1">
          <mxGeometry x="133" y="-633.75" width="20" height="20" as="geometry" />
        </mxCell>
        <mxCell id="msxX-ajNOKnb9wM-fJMI-12" value="" style="ellipse;whiteSpace=wrap;html=1;aspect=fixed;" parent="1" vertex="1">
          <mxGeometry x="133" y="-543.75" width="20" height="20" as="geometry" />
        </mxCell>
        <mxCell id="msxX-ajNOKnb9wM-fJMI-33" style="edgeStyle=orthogonalEdgeStyle;rounded=0;orthogonalLoop=1;jettySize=auto;html=1;exitX=1;exitY=0.5;exitDx=0;exitDy=0;entryX=0.373;entryY=1.023;entryDx=0;entryDy=0;endArrow=none;endFill=0;entryPerimeter=0;" parent="1" source="msxX-ajNOKnb9wM-fJMI-13" target="msxX-ajNOKnb9wM-fJMI-1" edge="1">
          <mxGeometry relative="1" as="geometry">
            <Array as="points">
              <mxPoint x="233" y="-563.75" />
            </Array>
          </mxGeometry>
        </mxCell>
        <mxCell id="msxX-ajNOKnb9wM-fJMI-13" value="" style="ellipse;whiteSpace=wrap;html=1;aspect=fixed;" parent="1" vertex="1">
          <mxGeometry x="133" y="-573.75" width="20" height="20" as="geometry" />
        </mxCell>
        <mxCell id="msxX-ajNOKnb9wM-fJMI-31" style="edgeStyle=orthogonalEdgeStyle;rounded=0;orthogonalLoop=1;jettySize=auto;html=1;exitX=1;exitY=0.5;exitDx=0;exitDy=0;endArrow=none;endFill=0;" parent="1" source="msxX-ajNOKnb9wM-fJMI-17" edge="1">
          <mxGeometry relative="1" as="geometry">
            <mxPoint x="263" y="-608.75" as="targetPoint" />
            <Array as="points">
              <mxPoint x="263" y="-503.75" />
              <mxPoint x="263" y="-608.75" />
            </Array>
          </mxGeometry>
        </mxCell>
        <mxCell id="msxX-ajNOKnb9wM-fJMI-17" value="" style="ellipse;whiteSpace=wrap;html=1;aspect=fixed;" parent="1" vertex="1">
          <mxGeometry x="133" y="-513.75" width="20" height="20" as="geometry" />
        </mxCell>
        <mxCell id="msxX-ajNOKnb9wM-fJMI-21" value="id_doador" style="text;html=1;align=center;verticalAlign=middle;whiteSpace=wrap;rounded=0;" parent="1" vertex="1">
          <mxGeometry x="73" y="-668.75" width="60" height="30" as="geometry" />
        </mxCell>
        <mxCell id="msxX-ajNOKnb9wM-fJMI-22" value="cpf" style="text;html=1;align=center;verticalAlign=middle;whiteSpace=wrap;rounded=0;" parent="1" vertex="1">
          <mxGeometry x="73" y="-578.75" width="60" height="30" as="geometry" />
        </mxCell>
        <mxCell id="msxX-ajNOKnb9wM-fJMI-23" value="email" style="text;html=1;align=center;verticalAlign=middle;whiteSpace=wrap;rounded=0;" parent="1" vertex="1">
          <mxGeometry x="73" y="-461.25" width="60" height="35" as="geometry" />
        </mxCell>
        <mxCell id="msxX-ajNOKnb9wM-fJMI-24" value="idade" style="text;html=1;align=center;verticalAlign=middle;whiteSpace=wrap;rounded=0;" parent="1" vertex="1">
          <mxGeometry x="73" y="-548.75" width="60" height="30" as="geometry" />
        </mxCell>
        <mxCell id="msxX-ajNOKnb9wM-fJMI-28" value="tpsan" style="text;html=1;align=center;verticalAlign=middle;whiteSpace=wrap;rounded=0;" parent="1" vertex="1">
          <mxGeometry x="73" y="-488.75" width="60" height="30" as="geometry" />
        </mxCell>
        <mxCell id="msxX-ajNOKnb9wM-fJMI-29" value="sexo" style="text;html=1;align=center;verticalAlign=middle;whiteSpace=wrap;rounded=0;" parent="1" vertex="1">
          <mxGeometry x="73" y="-518.75" width="60" height="30" as="geometry" />
        </mxCell>
        <mxCell id="msxX-ajNOKnb9wM-fJMI-32" style="edgeStyle=orthogonalEdgeStyle;rounded=0;orthogonalLoop=1;jettySize=auto;html=1;exitX=1;exitY=0.5;exitDx=0;exitDy=0;entryX=0.5;entryY=1;entryDx=0;entryDy=0;endArrow=none;endFill=0;" parent="1" source="msxX-ajNOKnb9wM-fJMI-12" target="msxX-ajNOKnb9wM-fJMI-1" edge="1">
          <mxGeometry relative="1" as="geometry">
            <mxPoint x="293" y="-598.75" as="targetPoint" />
          </mxGeometry>
        </mxCell>
        <mxCell id="msxX-ajNOKnb9wM-fJMI-34" style="edgeStyle=orthogonalEdgeStyle;rounded=0;orthogonalLoop=1;jettySize=auto;html=1;exitX=1;exitY=0.5;exitDx=0;exitDy=0;entryX=0.25;entryY=1;entryDx=0;entryDy=0;endArrow=none;endFill=0;" parent="1" source="msxX-ajNOKnb9wM-fJMI-10" target="msxX-ajNOKnb9wM-fJMI-1" edge="1">
          <mxGeometry relative="1" as="geometry">
            <Array as="points">
              <mxPoint x="218" y="-593.75" />
            </Array>
          </mxGeometry>
        </mxCell>
        <mxCell id="msxX-ajNOKnb9wM-fJMI-37" value="" style="ellipse;whiteSpace=wrap;html=1;aspect=fixed;fillColor=#000000;strokeColor=#000000;" parent="1" vertex="1">
          <mxGeometry x="698" y="-663.75" width="20" height="20" as="geometry" />
        </mxCell>
        <mxCell id="msxX-ajNOKnb9wM-fJMI-39" value="" style="ellipse;whiteSpace=wrap;html=1;aspect=fixed;" parent="1" vertex="1">
          <mxGeometry x="698" y="-633.75" width="20" height="20" as="geometry" />
        </mxCell>
        <mxCell id="msxX-ajNOKnb9wM-fJMI-44" style="edgeStyle=orthogonalEdgeStyle;rounded=0;orthogonalLoop=1;jettySize=auto;html=1;exitX=0;exitY=0.5;exitDx=0;exitDy=0;endArrow=none;endFill=0;entryX=0.25;entryY=1;entryDx=0;entryDy=0;" parent="1" source="msxX-ajNOKnb9wM-fJMI-59" target="msxX-ajNOKnb9wM-fJMI-3" edge="1">
          <mxGeometry relative="1" as="geometry">
            <mxPoint x="618" y="-593.75" as="targetPoint" />
            <Array as="points">
              <mxPoint x="573" y="-533.75" />
            </Array>
          </mxGeometry>
        </mxCell>
        <mxCell id="msxX-ajNOKnb9wM-fJMI-62" style="edgeStyle=orthogonalEdgeStyle;rounded=0;orthogonalLoop=1;jettySize=auto;html=1;exitX=0;exitY=0.5;exitDx=0;exitDy=0;entryX=0;entryY=0.5;entryDx=0;entryDy=0;" parent="1" source="msxX-ajNOKnb9wM-fJMI-46" target="msxX-ajNOKnb9wM-fJMI-46" edge="1">
          <mxGeometry relative="1" as="geometry" />
        </mxCell>
        <mxCell id="msxX-ajNOKnb9wM-fJMI-74" style="edgeStyle=orthogonalEdgeStyle;rounded=0;orthogonalLoop=1;jettySize=auto;html=1;exitX=0;exitY=0.5;exitDx=0;exitDy=0;entryX=0.5;entryY=1;entryDx=0;entryDy=0;endArrow=none;endFill=0;" parent="1" source="msxX-ajNOKnb9wM-fJMI-40" target="msxX-ajNOKnb9wM-fJMI-3" edge="1">
          <mxGeometry relative="1" as="geometry">
            <Array as="points">
              <mxPoint x="603" y="-593.75" />
            </Array>
          </mxGeometry>
        </mxCell>
        <mxCell id="msxX-ajNOKnb9wM-fJMI-40" value="" style="ellipse;whiteSpace=wrap;html=1;aspect=fixed;" parent="1" vertex="1">
          <mxGeometry x="698" y="-603.75" width="20" height="20" as="geometry" />
        </mxCell>
        <mxCell id="msxX-ajNOKnb9wM-fJMI-46" value="" style="ellipse;whiteSpace=wrap;html=1;aspect=fixed;" parent="1" vertex="1">
          <mxGeometry x="698" y="-573.75" width="20" height="20" as="geometry" />
        </mxCell>
        <mxCell id="msxX-ajNOKnb9wM-fJMI-55" style="edgeStyle=orthogonalEdgeStyle;rounded=0;orthogonalLoop=1;jettySize=auto;html=1;exitX=1;exitY=0.5;exitDx=0;exitDy=0;entryX=0.75;entryY=1;entryDx=0;entryDy=0;endArrow=none;endFill=0;" parent="1" source="msxX-ajNOKnb9wM-fJMI-49" target="msxX-ajNOKnb9wM-fJMI-1" edge="1">
          <mxGeometry relative="1" as="geometry" />
        </mxCell>
        <mxCell id="msxX-ajNOKnb9wM-fJMI-49" value="" style="ellipse;whiteSpace=wrap;html=1;aspect=fixed;" parent="1" vertex="1">
          <mxGeometry x="133" y="-483.75" width="20" height="20" as="geometry" />
        </mxCell>
        <mxCell id="msxX-ajNOKnb9wM-fJMI-50" value="" style="ellipse;whiteSpace=wrap;html=1;aspect=fixed;" parent="1" vertex="1">
          <mxGeometry x="133" y="-453.75" width="20" height="20" as="geometry" />
        </mxCell>
        <mxCell id="msxX-ajNOKnb9wM-fJMI-57" style="edgeStyle=orthogonalEdgeStyle;rounded=0;orthogonalLoop=1;jettySize=auto;html=1;exitX=1;exitY=0.5;exitDx=0;exitDy=0;entryX=1;entryY=1;entryDx=0;entryDy=0;endArrow=none;endFill=0;" parent="1" source="msxX-ajNOKnb9wM-fJMI-51" target="msxX-ajNOKnb9wM-fJMI-1" edge="1">
          <mxGeometry relative="1" as="geometry" />
        </mxCell>
        <mxCell id="msxX-ajNOKnb9wM-fJMI-51" value="" style="ellipse;whiteSpace=wrap;html=1;aspect=fixed;" parent="1" vertex="1">
          <mxGeometry x="133" y="-423.75" width="20" height="20" as="geometry" />
        </mxCell>
        <mxCell id="msxX-ajNOKnb9wM-fJMI-52" value="senha" style="text;html=1;align=center;verticalAlign=middle;whiteSpace=wrap;rounded=0;" parent="1" vertex="1">
          <mxGeometry x="73" y="-426.25" width="60" height="25" as="geometry" />
        </mxCell>
        <mxCell id="msxX-ajNOKnb9wM-fJMI-53" value="nome" style="text;html=1;align=center;verticalAlign=middle;whiteSpace=wrap;rounded=0;" parent="1" vertex="1">
          <mxGeometry x="73" y="-638.75" width="60" height="30" as="geometry" />
        </mxCell>
        <mxCell id="msxX-ajNOKnb9wM-fJMI-54" value="sbnome" style="text;html=1;align=center;verticalAlign=middle;whiteSpace=wrap;rounded=0;" parent="1" vertex="1">
          <mxGeometry x="73" y="-608.75" width="60" height="30" as="geometry" />
        </mxCell>
        <mxCell id="msxX-ajNOKnb9wM-fJMI-56" style="edgeStyle=orthogonalEdgeStyle;rounded=0;orthogonalLoop=1;jettySize=auto;html=1;exitX=1;exitY=0.5;exitDx=0;exitDy=0;endArrow=none;endFill=0;entryX=0.881;entryY=1.01;entryDx=0;entryDy=0;entryPerimeter=0;" parent="1" source="msxX-ajNOKnb9wM-fJMI-50" target="msxX-ajNOKnb9wM-fJMI-1" edge="1">
          <mxGeometry relative="1" as="geometry">
            <mxPoint x="303" y="-593.75" as="targetPoint" />
          </mxGeometry>
        </mxCell>
        <mxCell id="msxX-ajNOKnb9wM-fJMI-60" style="edgeStyle=orthogonalEdgeStyle;rounded=0;orthogonalLoop=1;jettySize=auto;html=1;exitX=0;exitY=0.5;exitDx=0;exitDy=0;entryX=0;entryY=1;entryDx=0;entryDy=0;endArrow=none;endFill=0;" parent="1" source="msxX-ajNOKnb9wM-fJMI-70" target="msxX-ajNOKnb9wM-fJMI-3" edge="1">
          <mxGeometry relative="1" as="geometry">
            <Array as="points">
              <mxPoint x="543" y="-473.75" />
            </Array>
          </mxGeometry>
        </mxCell>
        <mxCell id="msxX-ajNOKnb9wM-fJMI-59" value="" style="ellipse;whiteSpace=wrap;html=1;aspect=fixed;" parent="1" vertex="1">
          <mxGeometry x="698" y="-543.75" width="20" height="20" as="geometry" />
        </mxCell>
        <mxCell id="msxX-ajNOKnb9wM-fJMI-61" value="" style="ellipse;whiteSpace=wrap;html=1;aspect=fixed;" parent="1" vertex="1">
          <mxGeometry x="698" y="-513.75" width="20" height="20" as="geometry" />
        </mxCell>
        <mxCell id="msxX-ajNOKnb9wM-fJMI-63" style="edgeStyle=orthogonalEdgeStyle;rounded=0;orthogonalLoop=1;jettySize=auto;html=1;endArrow=none;endFill=0;entryX=0.389;entryY=1.01;entryDx=0;entryDy=0;entryPerimeter=0;" parent="1" target="msxX-ajNOKnb9wM-fJMI-3" edge="1">
          <mxGeometry relative="1" as="geometry">
            <mxPoint x="698" y="-563.75" as="sourcePoint" />
            <mxPoint x="589" y="-593.75" as="targetPoint" />
            <Array as="points">
              <mxPoint x="588" y="-563.75" />
              <mxPoint x="588" y="-607.75" />
            </Array>
          </mxGeometry>
        </mxCell>
        <mxCell id="msxX-ajNOKnb9wM-fJMI-64" value="id_lc" style="text;html=1;align=center;verticalAlign=middle;whiteSpace=wrap;rounded=0;" parent="1" vertex="1">
          <mxGeometry x="718" y="-668.75" width="60" height="30" as="geometry" />
        </mxCell>
        <mxCell id="msxX-ajNOKnb9wM-fJMI-65" value="nome" style="text;html=1;align=center;verticalAlign=middle;whiteSpace=wrap;rounded=0;" parent="1" vertex="1">
          <mxGeometry x="718" y="-638.75" width="60" height="30" as="geometry" />
        </mxCell>
        <mxCell id="msxX-ajNOKnb9wM-fJMI-66" value="email" style="text;html=1;align=center;verticalAlign=middle;whiteSpace=wrap;rounded=0;" parent="1" vertex="1">
          <mxGeometry x="718" y="-518.75" width="60" height="30" as="geometry" />
        </mxCell>
        <mxCell id="msxX-ajNOKnb9wM-fJMI-67" value="senha" style="text;html=1;align=center;verticalAlign=middle;whiteSpace=wrap;rounded=0;" parent="1" vertex="1">
          <mxGeometry x="718" y="-488.75" width="60" height="30" as="geometry" />
        </mxCell>
        <mxCell id="msxX-ajNOKnb9wM-fJMI-68" value="ende" style="text;html=1;align=center;verticalAlign=middle;whiteSpace=wrap;rounded=0;" parent="1" vertex="1">
          <mxGeometry x="718" y="-578.75" width="60" height="30" as="geometry" />
        </mxCell>
        <mxCell id="msxX-ajNOKnb9wM-fJMI-69" value="cidade" style="text;html=1;align=center;verticalAlign=middle;whiteSpace=wrap;rounded=0;" parent="1" vertex="1">
          <mxGeometry x="718" y="-548.75" width="60" height="30" as="geometry" />
        </mxCell>
        <mxCell id="msxX-ajNOKnb9wM-fJMI-70" value="" style="ellipse;whiteSpace=wrap;html=1;aspect=fixed;" parent="1" vertex="1">
          <mxGeometry x="698" y="-483.75" width="20" height="20" as="geometry" />
        </mxCell>
        <mxCell id="msxX-ajNOKnb9wM-fJMI-75" value="telefone" style="text;html=1;align=center;verticalAlign=middle;whiteSpace=wrap;rounded=0;" parent="1" vertex="1">
          <mxGeometry x="718" y="-608.75" width="60" height="30" as="geometry" />
        </mxCell>
        <mxCell id="msxX-ajNOKnb9wM-fJMI-76" value="(1,n)" style="text;html=1;align=center;verticalAlign=middle;whiteSpace=wrap;rounded=0;" parent="1" vertex="1">
          <mxGeometry x="490" y="-689" width="60" height="30" as="geometry" />
        </mxCell>
        <mxCell id="msxX-ajNOKnb9wM-fJMI-77" value="(1,n)" style="text;html=1;align=center;verticalAlign=middle;whiteSpace=wrap;rounded=0;" parent="1" vertex="1">
          <mxGeometry x="300" y="-689" width="60" height="30" as="geometry" />
        </mxCell>
        <mxCell id="rlO7dgwNBTb7SReX9kFE-2" style="edgeStyle=orthogonalEdgeStyle;rounded=0;orthogonalLoop=1;jettySize=auto;html=1;exitX=1;exitY=0.5;exitDx=0;exitDy=0;entryX=0;entryY=0.75;entryDx=0;entryDy=0;endArrow=none;endFill=0;" parent="1" source="rlO7dgwNBTb7SReX9kFE-1" target="msxX-ajNOKnb9wM-fJMI-3" edge="1">
          <mxGeometry relative="1" as="geometry">
            <Array as="points">
              <mxPoint x="465" y="-624" />
            </Array>
          </mxGeometry>
        </mxCell>
        <mxCell id="rlO7dgwNBTb7SReX9kFE-3" style="edgeStyle=orthogonalEdgeStyle;rounded=0;orthogonalLoop=1;jettySize=auto;html=1;exitX=0;exitY=0.5;exitDx=0;exitDy=0;entryX=1;entryY=0.75;entryDx=0;entryDy=0;endArrow=none;endFill=0;" parent="1" source="rlO7dgwNBTb7SReX9kFE-1" target="msxX-ajNOKnb9wM-fJMI-1" edge="1">
          <mxGeometry relative="1" as="geometry">
            <Array as="points">
              <mxPoint x="385" y="-624" />
            </Array>
          </mxGeometry>
        </mxCell>
        <mxCell id="rlO7dgwNBTb7SReX9kFE-1" value="recebe de" style="rhombus;whiteSpace=wrap;html=1;" parent="1" vertex="1">
          <mxGeometry x="385" y="-583.75" width="80" height="80" as="geometry" />
        </mxCell>
      </root>
    </mxGraphModel>
  </diagram>
</mxfile>
